<svg width="144" height="58" viewBox="0 0 144 58" fill="none" xmlns="http://www.w3.org/2000/svg">
<path d="M36.0448 23.1594L45.9172 18.676C46.646 20.3545 47.1982 22.1655 47.5516 23.9987L36.3319 29.1668C32.1356 31.1324 28.9331 33.8269 26.7466 39.9447C26.7466 32.6563 30.5454 25.6993 36.0448 23.1594ZM47.8828 27.7091L36.8841 31.53C30.8325 33.6723 26.7246 39.3263 26.7246 45.7312V49.2649C38.4522 49.0441 47.8166 39.503 47.8828 27.7091ZM26.7466 33.8269C28.1381 27.5987 31.2301 23.4907 34.7197 21.5913L44.592 16.2024C43.6423 14.6784 42.516 13.287 41.235 12.0502L34.4988 15.6944C29.927 18.168 26.7466 24.9705 26.7466 33.8269ZM7.90738 16.2024L17.7798 21.5913C21.2473 23.4907 24.3393 27.5987 25.7528 33.8269C25.7528 24.9484 22.6166 18.168 18.0227 15.6944L11.2644 12.0502C9.96137 13.287 8.85708 14.7005 7.90738 16.2024ZM25.7307 49.2649V45.7312C25.7307 39.3263 21.6448 33.6723 15.5712 31.53L4.63867 27.7091C4.63867 39.503 14.0693 49.0441 25.7307 49.2649ZM25.7307 39.9668C25.7307 32.6784 21.9098 25.6993 16.4325 23.1815L6.6264 18.6981C5.83131 20.3766 5.27916 22.1876 4.94787 24.0208L16.1675 29.1889C20.3417 31.1324 23.5442 33.8269 25.7307 39.9668ZM134.46 10.4821C134.614 10.4821 134.68 10.4821 134.791 10.3717C134.835 10.3275 134.901 10.2171 134.901 10.0404C134.901 9.88579 134.835 9.75328 134.725 9.64285C134.68 9.57659 134.57 9.53242 134.437 9.53242H133.775V10.4821H134.46ZM133.068 8.91401H134.526C134.702 8.91401 134.857 8.98027 134.967 9.02444C135.078 9.0907 135.188 9.20113 135.299 9.2453C135.409 9.35573 135.475 9.46616 135.52 9.64285C135.586 9.75328 135.586 9.92997 135.586 10.0404C135.586 10.2613 135.52 10.4379 135.409 10.5925C135.299 10.8134 135.188 10.9238 135.012 10.9901L135.741 12.2269H134.945L134.283 11.1668H133.775V12.2269H133.046V8.91401H133.068ZM134.305 12.9557C134.636 12.9557 134.967 12.8895 135.255 12.779C135.542 12.6686 135.807 12.4919 136.05 12.2711C136.271 12.0944 136.447 11.8293 136.558 11.5422C136.734 11.2551 136.779 10.9238 136.779 10.5925C136.779 10.2613 136.734 9.97414 136.558 9.68702C136.447 9.35573 136.271 9.13487 136.05 8.89193C135.829 8.67107 135.608 8.49438 135.255 8.38395C134.967 8.27352 134.636 8.20726 134.305 8.20726C133.974 8.20726 133.642 8.27352 133.355 8.38395C133.024 8.49438 132.803 8.67107 132.56 8.89193C132.339 9.11278 132.163 9.33364 132.052 9.62076C131.942 9.95205 131.875 10.2392 131.875 10.5705C131.875 10.9017 131.942 11.1889 132.052 11.5201C132.163 11.8073 132.339 12.0281 132.56 12.249C132.781 12.4698 133.002 12.6465 133.355 12.757C133.62 12.8895 133.952 12.9557 134.305 12.9557ZM134.305 13.3533C133.907 13.3533 133.51 13.3091 133.179 13.1324C132.847 13.022 132.516 12.8011 132.273 12.5803C131.986 12.2932 131.831 12.0281 131.655 11.6747C131.5 11.3435 131.434 11.0122 131.434 10.6146C131.434 10.2171 131.5 9.88579 131.655 9.5545C131.831 9.22321 132.008 8.9361 132.273 8.64898C132.494 8.42812 132.825 8.25144 133.179 8.09684C133.51 7.98641 133.907 7.87598 134.305 7.87598C134.702 7.87598 135.1 7.98641 135.431 8.09684C135.829 8.25144 136.094 8.42812 136.381 8.64898C136.602 8.9361 136.823 9.20113 136.933 9.5545C137.088 9.88579 137.154 10.2171 137.154 10.6146C137.154 11.0122 137.088 11.3435 136.933 11.6747C136.823 12.006 136.602 12.2932 136.381 12.5803C136.094 12.8011 135.829 13.022 135.431 13.1324C135.078 13.287 134.702 13.3533 134.305 13.3533ZM56.7393 20.4649V11.476H54.9945V20.4649H56.7393ZM64.3147 16.3128C64.3147 16.0257 64.3147 15.6944 64.2706 15.3631C64.2043 15.076 64.0939 14.8109 63.9835 14.568C63.8289 14.2809 63.6522 14.1263 63.365 13.9496C63.0779 13.7729 62.7466 13.7287 62.3491 13.7287C61.7307 13.7287 61.2227 13.8392 60.781 14.06C60.273 14.3471 59.9417 14.6122 59.7209 15.076V13.8392H58.1528V20.4649H59.8976V16.5778C59.9417 16.4232 60.008 16.1803 60.1847 16.0257C60.2951 15.8711 60.4055 15.7386 60.5822 15.584C60.7368 15.4735 60.9135 15.3631 61.0902 15.2968C61.2669 15.2306 61.4215 15.2306 61.5982 15.2306C61.9295 15.2306 62.2166 15.341 62.3933 15.5619C62.6141 15.7827 62.6804 16.1803 62.6804 16.7545V20.4649H64.3589V16.3128H64.3147ZM69.019 18.7864C68.9749 18.8306 68.7982 18.8968 68.6215 18.941C68.4448 19.0073 68.2902 19.0514 68.1135 19.0514C67.9589 19.0514 67.7822 19.0073 67.6718 18.8968C67.5614 18.7864 67.4509 18.6097 67.4509 18.3889V15.1422H68.8644V13.8613H67.4509V11.7189H65.7724V13.8613H64.9331V15.1422H65.7724V18.9631C65.7724 19.2502 65.8387 19.5152 65.9491 19.7582C65.9933 19.9349 66.1037 20.0895 66.2804 20.2662C66.435 20.3766 66.6117 20.487 66.8325 20.5533C67.0534 20.6195 67.2743 20.6195 67.4951 20.6195C67.8264 20.6195 68.2239 20.5533 68.5552 20.5091C68.8423 20.3987 69.1074 20.2882 69.3945 20.1778L69.019 18.7864ZM74.6289 16.5999C74.5847 16.0919 74.408 15.6944 74.0767 15.4294C73.7454 15.1422 73.3479 14.9876 72.9062 14.9876C72.6853 14.9876 72.4644 14.9876 72.2877 15.0981C72.0669 15.1422 71.8902 15.2527 71.7356 15.4294C71.6252 15.5398 71.4485 15.7606 71.4043 15.9373C71.2939 16.1582 71.2497 16.379 71.2497 16.5999H74.6289ZM72.8841 20.6416C72.3761 20.6416 71.8681 20.5312 71.4706 20.3545C71.0289 20.1336 70.6313 19.9128 70.3442 19.6257C70.0571 19.2944 69.792 18.9631 69.6154 18.4993C69.5049 18.1017 69.3945 17.66 69.3945 17.2183C69.3945 16.7103 69.4387 16.2686 69.6154 15.8711C69.77 15.4294 70.0129 15.076 70.3442 14.7447C70.6313 14.4576 71.0068 14.1925 71.4706 14.0159C71.8681 13.795 72.3761 13.7287 72.9282 13.7287C73.4362 13.7287 73.9442 13.7729 74.3859 14.0159C74.7835 14.1925 75.181 14.4576 75.446 14.7447C75.7331 15.076 75.954 15.4073 76.1086 15.8711C76.2853 16.2686 76.3295 16.7103 76.3295 17.152C76.3295 17.2625 76.3295 17.3729 76.3295 17.4392C76.3295 17.5496 76.3295 17.66 76.3295 17.7263H71.1614C71.2055 18.0134 71.2718 18.2343 71.316 18.3889C71.4264 18.6097 71.6031 18.7864 71.7135 18.941C71.8681 19.0514 72.1111 19.1619 72.2657 19.2281C72.4865 19.3386 72.7074 19.3386 72.8841 19.3386C73.2816 19.3386 73.5466 19.2723 73.9 19.1177C74.1871 18.941 74.3417 18.7202 74.5184 18.4551L75.9098 18.8968C75.689 19.4048 75.2914 19.8024 74.7835 20.1336C74.2976 20.4649 73.6792 20.6416 72.8841 20.6416ZM81.1442 13.795C81.0779 13.7508 81.0338 13.7508 81.0338 13.7508C80.9675 13.7508 80.8571 13.7508 80.8129 13.7508C80.4154 13.7508 80.0178 13.9054 79.6423 14.1925C79.3111 14.4797 78.9798 14.8109 78.7368 15.2527V13.8613H77.1687V20.487H78.9135V16.4895C79.0681 16.0919 79.3552 15.8269 79.7528 15.584C80.1945 15.4294 80.6583 15.2968 81.1663 15.2968V13.795H81.1442ZM87.9246 16.3128C87.9246 16.0257 87.9246 15.6944 87.8804 15.3631C87.8141 15.076 87.7037 14.8109 87.5491 14.568C87.4387 14.2809 87.2178 14.1263 86.9307 13.9496C86.7098 13.7729 86.3785 13.7287 85.9147 13.7287C85.3626 13.7287 84.8546 13.8392 84.3466 14.06C83.9049 14.3471 83.5516 14.6122 83.2865 15.076V13.8392H81.7626V20.4649H83.4411V16.5778C83.5074 16.4232 83.6178 16.1803 83.7282 16.0257C83.8828 15.8711 84.0154 15.7386 84.17 15.584C84.3246 15.4735 84.5012 15.3631 84.6779 15.2968C84.8546 15.2306 85.0092 15.2306 85.1859 15.2306C85.5172 15.2306 85.7381 15.341 85.981 15.5619C86.1356 15.7827 86.2681 16.1803 86.2681 16.7545V20.4649H87.9466V16.3128H87.9246ZM91.392 19.3606C91.6792 19.3606 91.9 19.3606 92.1871 19.2502C92.4743 19.1398 92.6289 18.9631 92.8055 18.8527C92.9601 18.6981 93.0927 18.5214 93.0927 18.3447V17.5496C92.8718 17.4833 92.6509 17.4392 92.4301 17.3729C92.2092 17.3287 91.9884 17.3287 91.7675 17.3287C91.3258 17.3287 90.9724 17.4392 90.7074 17.6159C90.4203 17.8367 90.2657 18.0576 90.2657 18.4109C90.2657 18.6981 90.3761 18.9189 90.597 19.0735C90.7736 19.2944 91.0608 19.3606 91.392 19.3606ZM90.8841 20.6416C90.5528 20.6416 90.2657 20.5974 89.9785 20.487C89.6914 20.3766 89.4706 20.1999 89.2497 20.0453C89.0289 19.8244 88.9184 19.6478 88.808 19.3827C88.6976 19.0956 88.5871 18.8748 88.5871 18.5435C88.5871 18.2122 88.6976 17.9251 88.808 17.7042C88.9847 17.4171 89.1393 17.1962 89.4264 17.0416C89.6473 16.8208 89.9344 16.7103 90.3319 16.5999C90.6632 16.4895 90.9945 16.4232 91.4583 16.4232C91.7454 16.4232 92.0104 16.4232 92.2976 16.4895C92.5847 16.5336 92.8497 16.6441 93.0927 16.7103V16.3128C93.0927 15.8711 92.9822 15.584 92.6951 15.2968C92.4743 15.076 92.0767 14.9655 91.5687 14.9655C91.2374 14.9655 90.9062 15.0318 90.5528 15.1422C90.2215 15.2968 89.8902 15.4735 89.4927 15.6944L88.9847 14.6343C89.8239 14.0821 90.7736 13.795 91.7233 13.795C92.673 13.795 93.4681 14.0159 93.9761 14.4576C94.4841 14.9655 94.7712 15.6281 94.7712 16.5336V18.6097C94.7712 18.7643 94.8374 18.8968 94.8816 18.941C94.9258 19.0514 95.0362 19.0514 95.2129 19.0956V20.5091C95.0362 20.5533 94.9258 20.5533 94.7491 20.5533C94.6387 20.6195 94.5282 20.6195 94.4178 20.6195C94.0865 20.6195 93.8657 20.5091 93.689 20.3987C93.5123 20.222 93.4019 20.0674 93.3577 19.8465L93.2914 19.449C93.0043 19.8465 92.673 20.1778 92.2313 20.3545C91.8338 20.5312 91.392 20.6416 90.8841 20.6416ZM99.6963 18.7864C99.6301 18.8306 99.4755 18.8968 99.2988 18.941C99.1442 19.0073 98.9675 19.0514 98.7908 19.0514C98.6141 19.0514 98.4595 19.0073 98.3491 18.8968C98.1724 18.7864 98.1282 18.6097 98.1282 18.3889V15.1422H99.5197V13.8613H98.1282V11.7189H96.4497V13.8613H95.6104V15.1422H96.4497V18.9631C96.4497 19.2502 96.4939 19.5152 96.6043 19.7582C96.6706 19.9349 96.781 20.0895 96.9356 20.2662C97.1123 20.3766 97.2669 20.487 97.4877 20.5533C97.7086 20.6195 97.8853 20.6195 98.1503 20.6195C98.4816 20.6195 98.8129 20.5533 99.2104 20.5091C99.4976 20.3987 99.7626 20.2882 100.006 20.1778L99.6963 18.7864ZM100.602 12.8895V11.2109H102.28V12.8895H100.602ZM100.602 20.4649V13.8392H102.28V20.4649H100.602ZM104.798 17.152C104.798 17.4833 104.864 17.7042 104.909 17.9913C105.019 18.2122 105.129 18.433 105.306 18.6097C105.461 18.7864 105.637 18.941 105.858 19.0073C106.079 19.1177 106.3 19.1619 106.521 19.1619C106.742 19.1619 106.963 19.1177 107.183 19.0073C107.404 18.941 107.581 18.7864 107.736 18.6097C107.89 18.4551 108.023 18.2122 108.133 17.9913C108.199 17.7042 108.244 17.4392 108.244 17.152C108.244 16.8649 108.199 16.5999 108.133 16.357C108.023 16.1361 107.912 15.9152 107.736 15.7386C107.559 15.5177 107.404 15.4073 107.183 15.2968C106.963 15.2306 106.742 15.1864 106.521 15.1864C106.3 15.1864 106.079 15.2306 105.858 15.2968C105.637 15.4073 105.461 15.584 105.306 15.7386C105.129 15.8932 105.019 16.1361 104.909 16.357C104.864 16.5999 104.798 16.887 104.798 17.152ZM106.543 20.6416C105.991 20.6416 105.527 20.5312 105.085 20.3545C104.644 20.1336 104.29 19.9128 103.959 19.5594C103.672 19.2281 103.451 18.8968 103.296 18.4993C103.12 18.0576 103.075 17.66 103.075 17.152C103.075 16.7103 103.12 16.2465 103.296 15.8711C103.451 15.4294 103.694 15.076 103.959 14.7447C104.29 14.4576 104.621 14.1925 105.085 14.0159C105.527 13.795 105.991 13.7287 106.543 13.7287C107.095 13.7287 107.559 13.7729 108.001 14.0159C108.398 14.1925 108.796 14.4576 109.061 14.7447C109.392 15.076 109.613 15.4073 109.79 15.8711C109.9 16.2686 110.01 16.7103 110.01 17.152C110.01 17.66 109.9 18.0576 109.79 18.4993C109.613 18.8968 109.392 19.2281 109.061 19.5594C108.774 19.8907 108.442 20.1116 108.001 20.3545C107.559 20.5312 107.095 20.6416 106.543 20.6416ZM116.967 16.3128C116.967 16.0257 116.968 15.6944 116.923 15.3631C116.857 15.076 116.747 14.8109 116.592 14.568C116.482 14.2809 116.261 14.1263 115.974 13.9496C115.753 13.7729 115.421 13.7287 114.958 13.7287C114.406 13.7287 113.898 13.8392 113.39 14.06C112.948 14.3471 112.594 14.6122 112.329 15.076V13.8392H110.828V20.4649H112.506V16.5778C112.55 16.4232 112.661 16.1803 112.793 16.0257C112.97 15.8711 113.08 15.7386 113.235 15.584C113.412 15.4735 113.588 15.3631 113.743 15.2968C113.92 15.2306 114.074 15.2306 114.251 15.2306C114.582 15.2306 114.803 15.341 115.046 15.5619C115.201 15.7827 115.333 16.1803 115.333 16.7545V20.4649H117.012V16.3128H116.967ZM120.391 19.3606C120.722 19.3606 120.943 19.3606 121.23 19.2502C121.517 19.1398 121.672 18.9631 121.848 18.8527C122.003 18.6981 122.136 18.5214 122.136 18.3447V17.5496C121.915 17.4833 121.694 17.4392 121.473 17.3729C121.252 17.3287 121.031 17.3287 120.81 17.3287C120.369 17.3287 120.015 17.4392 119.75 17.6159C119.463 17.8367 119.309 18.0576 119.309 18.4109C119.309 18.6981 119.419 18.9189 119.64 19.0735C119.839 19.2944 120.104 19.3606 120.391 19.3606ZM119.949 20.6416C119.618 20.6416 119.331 20.5974 119.044 20.487C118.756 20.3766 118.536 20.1999 118.315 20.0453C118.094 19.8244 117.983 19.6478 117.873 19.3827C117.763 19.0956 117.652 18.8748 117.652 18.5435C117.652 18.2122 117.763 17.9251 117.873 17.7042C118.05 17.4171 118.204 17.1962 118.491 17.0416C118.712 16.8208 118.999 16.7103 119.331 16.5999C119.728 16.4895 120.06 16.4232 120.501 16.4232C120.788 16.4232 121.053 16.4232 121.341 16.4895C121.628 16.5336 121.893 16.6441 122.136 16.7103V16.3128C122.136 15.8711 121.981 15.584 121.738 15.2968C121.517 15.076 121.12 14.9655 120.612 14.9655C120.28 14.9655 119.949 15.0318 119.596 15.1422C119.264 15.2968 118.933 15.4735 118.536 15.6944L118.028 14.6343C118.867 14.0821 119.817 13.795 120.766 13.795C121.716 13.795 122.511 14.0159 123.019 14.4576C123.527 14.9655 123.814 15.6281 123.814 16.5336V18.6097C123.814 18.7643 123.88 18.8968 123.925 18.941C123.991 19.0514 124.101 19.0514 124.256 19.0956V20.5091C124.101 20.5533 123.969 20.5533 123.814 20.5533C123.704 20.6195 123.527 20.6195 123.483 20.6195C123.152 20.6195 122.931 20.5091 122.754 20.3987C122.577 20.222 122.467 20.0674 122.423 19.8465L122.356 19.449C122.069 19.8465 121.738 20.1778 121.296 20.3545C120.899 20.5312 120.391 20.6416 119.949 20.6416ZM125.272 18.9631C125.272 19.4711 125.448 19.9128 125.714 20.1557C126.001 20.487 126.376 20.5974 126.95 20.5974C127.171 20.5974 127.458 20.5975 127.79 20.5312C128.077 20.4208 128.342 20.3766 128.585 20.2441L128.364 18.8968C128.253 18.941 128.143 18.941 128.033 19.0073C127.856 19.0514 127.745 19.0514 127.701 19.0514C127.26 19.0514 126.972 18.7643 126.972 18.2563V11.1889H125.294V18.9631H125.272ZM61.1123 26.8036C60.7147 26.5165 60.273 26.2956 59.6988 26.0748C59.1908 25.8981 58.5724 25.7876 57.954 25.7876C57.5123 25.7876 57.0485 25.8539 56.673 25.9643C56.2755 26.0748 55.9442 26.2514 55.6571 26.5165C55.3258 26.7373 55.1049 27.0244 54.9282 27.422C54.7516 27.7533 54.6411 28.1508 54.6411 28.5925C54.6411 28.9459 54.7074 29.2772 54.8178 29.4981C54.9282 29.7852 55.1049 30.006 55.3258 30.1606C55.5466 30.3152 55.7675 30.4919 56.1209 30.6686C56.4522 30.779 56.7835 30.9557 57.2473 31.0662C57.5785 31.1103 57.9098 31.2208 58.197 31.287C58.4841 31.3974 58.7712 31.5079 58.9258 31.5741C59.1466 31.6846 59.3233 31.795 59.4338 31.9717C59.5442 32.0821 59.5442 32.2588 59.5442 32.4797C59.5442 33.0981 59.1025 33.3852 58.1307 33.3852C57.7994 33.3852 57.4681 33.3852 57.1147 33.2747C56.7835 33.1643 56.4522 33.1201 56.2092 32.9435C55.9221 32.833 55.7012 32.7226 55.4804 32.6122C55.3037 32.5017 55.1491 32.3913 55.0828 32.3251L54.2878 33.7827C54.7957 34.1803 55.4141 34.4453 56.0767 34.6882C56.6951 34.8428 57.3577 34.9754 58.0423 34.9754C58.4841 34.9754 58.9479 34.9312 59.3233 34.8649C59.7209 34.7545 60.0522 34.5778 60.3835 34.357C60.6706 34.1803 60.9356 33.9152 61.1123 33.5619C61.289 33.1643 61.3994 32.7668 61.3994 32.3251C61.3994 31.8833 61.3331 31.53 61.1785 31.2649C61.0681 30.9778 60.8473 30.757 60.6264 30.5361C60.3393 30.3152 60.0742 30.1386 59.7209 30.0281C59.3233 29.8735 58.9258 29.741 58.4841 29.6306C58.1528 29.5643 57.8657 29.4539 57.5785 29.4097C57.3577 29.2993 57.1368 29.233 56.9601 29.1226C56.7835 29.0784 56.673 28.968 56.5626 28.7913C56.4522 28.6809 56.4522 28.5705 56.4522 28.3496C56.4522 28.0625 56.5626 27.7975 56.7835 27.6208C57.0043 27.4662 57.4019 27.3336 57.8436 27.3336C58.1307 27.3336 58.3957 27.3778 58.6387 27.4441C58.9258 27.4882 59.1466 27.5987 59.3675 27.6649C59.5884 27.7754 59.8092 27.8858 59.9859 27.9962C60.0963 28.1066 60.2068 28.1508 60.273 28.2171L61.1123 26.8036ZM62.1724 32.8772C62.3491 33.2747 62.57 33.6723 62.9012 33.9373C63.1884 34.2686 63.5638 34.4895 63.9614 34.7324C64.4031 34.9091 64.9111 35.0195 65.419 35.0195C66.1479 35.0195 66.8325 34.8428 67.3184 34.5116C67.8264 34.1803 68.2239 33.7827 68.4448 33.2747L66.7663 32.7668C66.7221 32.9876 66.5454 33.1643 66.2583 33.3189C65.9712 33.4735 65.7062 33.5398 65.419 33.5398C65.1982 33.5398 64.9773 33.4735 64.7565 33.3631C64.5356 33.3189 64.3589 33.1422 64.2043 32.9655C64.0497 32.7889 63.9172 32.568 63.8068 32.3471C63.7405 32.06 63.6963 31.795 63.6963 31.5079C63.6963 31.2208 63.7405 30.9557 63.8068 30.7128C63.9172 30.4919 64.0276 30.2711 64.2043 30.0944C64.381 29.9398 64.5356 29.7631 64.7565 29.6527C64.9332 29.6085 65.1982 29.5422 65.419 29.5422C65.7062 29.5422 65.9712 29.6085 66.2141 29.7189C66.435 29.8735 66.6558 30.0502 66.7663 30.2711L68.4448 29.7631C68.1577 29.2551 67.7822 28.8576 67.2743 28.5263C66.7663 28.2392 66.1479 28.0846 65.419 28.0846C64.8669 28.0846 64.4031 28.195 63.9614 28.3717C63.5197 28.5484 63.1663 28.8355 62.835 29.1005C62.5479 29.4318 62.327 29.7631 62.1724 30.2269C62.0178 30.6244 61.9516 31.0662 61.9516 31.53C61.9516 31.9938 62.0178 32.4355 62.1724 32.8772ZM75.4019 30.757C75.4019 30.4257 75.4019 30.0944 75.2914 29.741C75.2473 29.4539 75.181 29.1889 75.0043 28.9017C74.8276 28.6809 74.6068 28.5042 74.3859 28.3496C74.0988 28.1729 73.7233 28.1287 73.3258 28.1287C72.8178 28.1287 72.3761 28.2392 71.9123 28.46C71.5147 28.6809 71.1835 29.0122 70.8963 29.476V25.5889H69.2178V34.8428H70.8963V30.9778C70.9626 30.8011 71.073 30.5803 71.1834 30.4257C71.3381 30.249 71.4706 30.1386 71.6252 29.9839C71.7356 29.8735 71.9123 29.8073 72.0669 29.6968C72.2215 29.6527 72.3982 29.6527 72.5749 29.6527C72.9062 29.6527 73.1933 29.7631 73.4141 29.9839C73.5687 30.2711 73.7012 30.6465 73.7012 31.1545V34.8649H75.3798V30.757H75.4019ZM78.008 31.53C78.008 31.8613 78.0522 32.0821 78.1184 32.3692C78.2289 32.5901 78.3393 32.8109 78.516 32.9876C78.6264 33.1422 78.8473 33.3189 79.0239 33.3852C79.2448 33.4956 79.4657 33.5619 79.7528 33.5619C79.9736 33.5619 80.1945 33.4956 80.4154 33.3852C80.6362 33.341 80.8129 33.1643 80.9675 32.9876C81.0779 32.8109 81.2546 32.5901 81.2988 32.3692C81.4092 32.0821 81.4755 31.8171 81.4755 31.53C81.4755 31.2428 81.4092 30.9778 81.2988 30.7349C81.2546 30.514 81.0779 30.2932 80.9675 30.1165C80.8129 29.9619 80.6362 29.7852 80.4154 29.6747C80.1945 29.6306 79.9736 29.5643 79.7528 29.5643C79.4657 29.5643 79.2448 29.6306 79.0239 29.6747C78.8473 29.7852 78.6264 29.9619 78.516 30.1165C78.3614 30.2932 78.2289 30.514 78.1184 30.7349C78.0522 31.022 78.008 31.2428 78.008 31.53ZM79.7307 35.0195C79.1785 35.0195 78.6706 34.9091 78.273 34.7324C77.8313 34.5116 77.4338 34.2907 77.1466 33.9373C76.8595 33.6502 76.6387 33.2747 76.4841 32.8772C76.3295 32.4355 76.197 32.0379 76.197 31.53C76.197 31.0882 76.3074 30.6244 76.4841 30.2269C76.6608 29.8294 76.8816 29.4318 77.1466 29.1005C77.4338 28.8134 77.8092 28.5484 78.273 28.3717C78.6706 28.2171 79.1785 28.0846 79.7307 28.0846C80.2387 28.0846 80.7466 28.195 81.1884 28.3717C81.5859 28.5484 81.9835 28.8355 82.2485 29.1005C82.5356 29.4318 82.7565 29.8294 82.9111 30.2269C83.0657 30.6244 83.1982 31.0662 83.1982 31.53C83.1982 32.0379 83.0877 32.4355 82.9111 32.8772C82.7344 33.2747 82.5135 33.6723 82.2485 33.9373C81.9614 34.2686 81.5859 34.4895 81.1884 34.7324C80.7466 34.9091 80.2387 35.0195 79.7307 35.0195ZM85.4068 31.53C85.4068 31.8613 85.4509 32.0821 85.5614 32.3692C85.6276 32.5901 85.7381 32.8109 85.8927 32.9876C86.0693 33.1422 86.2239 33.3189 86.4448 33.3852C86.6657 33.4956 86.8865 33.5619 87.1074 33.5619C87.3282 33.5619 87.5491 33.4956 87.77 33.3852C87.9908 33.341 88.1675 33.1643 88.3221 32.9876C88.4988 32.8109 88.6092 32.5901 88.7197 32.3692C88.7638 32.0821 88.8301 31.8171 88.8301 31.53C88.8301 31.2428 88.7638 30.9778 88.7197 30.7349C88.6092 30.514 88.4988 30.2932 88.3221 30.1165C88.1675 29.9619 87.9908 29.7852 87.77 29.6747C87.5491 29.6306 87.3282 29.5643 87.1074 29.5643C86.8865 29.5643 86.6657 29.6306 86.4448 29.6747C86.2239 29.7852 86.0473 29.9619 85.8927 30.1165C85.7381 30.2932 85.6055 30.514 85.5614 30.7349C85.4509 31.022 85.4068 31.2428 85.4068 31.53ZM87.1295 35.0195C86.5773 35.0195 86.1135 34.9091 85.6718 34.7324C85.2301 34.5116 84.8767 34.2907 84.6117 33.9373C84.2804 33.6502 84.0595 33.2747 83.8828 32.8772C83.7282 32.4355 83.662 32.0379 83.662 31.53C83.662 31.0882 83.7282 30.6244 83.8828 30.2269C84.0595 29.8294 84.2804 29.4318 84.6117 29.1005C84.8988 28.8134 85.2301 28.5484 85.6718 28.3717C86.1135 28.2171 86.5773 28.0846 87.1295 28.0846C87.6816 28.0846 88.1454 28.195 88.5871 28.3717C88.9847 28.5484 89.3822 28.8355 89.6473 29.1005C89.9785 29.4318 90.1994 29.8294 90.3761 30.2269C90.5528 30.6244 90.597 31.0662 90.597 31.53C90.597 32.0379 90.5528 32.4355 90.3761 32.8772C90.2215 33.2747 89.9785 33.6723 89.6473 33.9373C89.3601 34.2686 89.0289 34.4895 88.5871 34.7324C88.1454 34.9091 87.7037 35.0195 87.1295 35.0195ZM91.4583 33.341C91.4583 33.849 91.6129 34.2907 91.9 34.5778C92.1871 34.8649 92.6289 34.9754 93.1368 34.9754C93.3577 34.9754 93.6448 34.9754 93.9761 34.9312C94.2632 34.8649 94.5282 34.7545 94.7712 34.6441L94.5503 33.2968C94.4399 33.3631 94.3295 33.3631 94.219 33.4073C94.1086 33.4735 93.9982 33.4735 93.8877 33.4735C93.446 33.4735 93.2252 33.1864 93.2252 32.6784V25.5889H91.4804V33.341H91.4583ZM99.2546 34.8428C99.5859 34.7324 99.873 34.622 100.094 34.4453C100.315 34.2244 100.491 34.0478 100.646 33.7827C100.756 33.4956 100.823 33.2306 100.823 32.8772C100.823 32.5901 100.756 32.3692 100.712 32.1484C100.602 31.9938 100.425 31.8171 100.204 31.6404C100.05 31.4637 99.7626 31.3533 99.4092 31.2428C99.0779 31.1324 98.6141 31.022 98.1724 30.9116C97.6644 30.757 97.3332 30.6244 97.1123 30.514C96.9356 30.4478 96.8252 30.2932 96.8252 30.0723C96.8252 29.7852 96.9356 29.5643 97.1123 29.4539C97.3332 29.3435 97.6203 29.2993 97.9074 29.2993C98.2387 29.2993 98.57 29.3435 98.9233 29.4539C99.2546 29.5643 99.5859 29.741 99.9393 29.9619L100.668 28.9017C100.271 28.6809 99.8288 28.46 99.3871 28.3496C98.8792 28.1729 98.4374 28.1287 97.9295 28.1287C97.5319 28.1287 97.2006 28.1729 96.8693 28.2833C96.5822 28.3496 96.3172 28.5042 96.0301 28.6809C95.8092 28.9017 95.6325 29.1226 95.4779 29.4097C95.3675 29.6306 95.3012 29.9619 95.3012 30.3152C95.3012 30.5361 95.3012 30.757 95.4117 30.9778C95.4779 31.1324 95.6325 31.3091 95.8092 31.4195C95.9638 31.5741 96.2509 31.7067 96.5381 31.8171C96.8693 31.9275 97.2006 32.0379 97.6644 32.1484C98.2166 32.2588 98.6141 32.3692 98.9012 32.4797C99.1221 32.5901 99.2325 32.8109 99.2325 33.0318C99.2325 33.2527 99.1221 33.4294 98.9012 33.584C98.7466 33.6944 98.4595 33.7606 98.062 33.7606C97.2669 33.7606 96.4939 33.4735 95.6546 32.9214L94.992 34.114C95.1687 34.2244 95.3896 34.3349 95.6546 34.4453C95.8755 34.5999 96.1626 34.6662 96.4497 34.7324C96.7368 34.8428 97.0019 34.9091 97.289 34.9533C97.5761 34.9533 97.8411 35.0195 98.1282 35.0195C98.5258 35.0195 98.8571 34.9533 99.2546 34.8428ZM56.7393 44.6711H58.7712C59.0583 44.6711 59.3233 44.5606 59.5663 44.2735C59.7871 44.0527 59.8976 43.6551 59.8976 43.2134C59.8976 42.9925 59.8313 42.8159 59.7871 42.595C59.7209 42.4404 59.6104 42.3079 59.5 42.1533C59.3896 42.0428 59.2792 41.9324 59.1687 41.8662C59.0141 41.7999 58.8374 41.7999 58.6608 41.7999H56.7614V44.6711H56.7393ZM54.9503 49.2649V40.2318H58.7712C59.2129 40.2318 59.6104 40.3422 59.9417 40.5189C60.273 40.6735 60.6043 40.9165 60.8473 41.1815C61.1344 41.4686 61.289 41.7999 61.4657 42.1312C61.5761 42.5287 61.6865 42.86 61.6865 43.1913C61.6865 43.5889 61.5761 43.9864 61.4657 44.3177C61.289 44.7152 61.1344 44.9803 60.9135 45.2674C60.6264 45.5545 60.3614 45.7754 60.008 45.93C59.6767 46.1067 59.2792 46.2171 58.8816 46.2171H56.7393V49.2429H54.9503V49.2649ZM64.646 48.1606C64.9332 48.1606 65.1982 48.1165 65.4853 48.006C65.7062 47.8956 65.927 47.7852 66.0374 47.6085C66.2583 47.4539 66.3246 47.2772 66.3246 47.1005V46.3717C66.17 46.2613 65.927 46.195 65.7062 46.1508C65.419 46.1508 65.1982 46.0846 64.9773 46.0846C64.5356 46.0846 64.1822 46.195 63.9172 46.3717C63.6301 46.5925 63.5197 46.8134 63.5197 47.1668C63.5197 47.4539 63.6301 47.6748 63.8509 47.8956C64.0276 48.0281 64.3147 48.1606 64.646 48.1606ZM64.1381 49.3754C63.8509 49.3754 63.5196 49.3312 63.2325 49.2208C62.9454 49.1103 62.7246 48.9336 62.57 48.779C62.3491 48.6024 62.1724 48.3815 62.062 48.1165C61.9516 47.8956 61.9074 47.6085 61.9074 47.2772C61.9074 46.9901 61.9515 46.7251 62.1282 46.4379C62.2387 46.1508 62.4595 45.93 62.6804 45.7533C62.9675 45.5324 63.2325 45.422 63.5859 45.3116C63.9172 45.2011 64.3147 45.157 64.7123 45.157C65.0436 45.157 65.3307 45.2011 65.6178 45.2674C65.9049 45.2674 66.17 45.3778 66.3466 45.422V45.0907C66.3466 44.649 66.2362 44.2956 66.0154 44.0748C65.7282 43.7876 65.3969 43.6772 64.889 43.6772C64.5577 43.6772 64.1601 43.7214 63.8289 43.8981C63.4976 44.0085 63.1663 44.1852 62.8129 44.4502L62.3049 43.3238C63.1442 42.7717 64.0497 42.4846 65.0657 42.4846C66.0154 42.4846 66.7442 42.7054 67.3184 43.2134C67.8264 43.6551 68.1135 44.3398 68.1135 45.2232V47.2993C68.1135 47.4539 68.1135 47.5864 68.1577 47.6968C68.2681 47.7631 68.3785 47.8073 68.5552 47.8073V49.2649C68.3785 49.2649 68.2239 49.3312 68.1135 49.3312C67.9368 49.3312 67.8264 49.3312 67.716 49.3312C67.4289 49.3312 67.1638 49.2649 66.9871 49.1103C66.8104 48.9999 66.7 48.779 66.7 48.5582L66.6558 48.2269C66.3687 48.6244 65.9933 48.8895 65.5957 49.0662C65.0877 49.2649 64.646 49.3754 64.1381 49.3754ZM73.3479 42.5287C73.3479 42.5287 73.2816 42.5287 73.2374 42.4625C73.1712 42.4625 73.127 42.4625 73.0166 42.4625C72.619 42.4625 72.2215 42.6392 71.8902 42.9042C71.4927 43.1913 71.2276 43.5226 70.9847 44.0306V42.5729H69.4166V49.2649H71.0951V45.2232C71.2497 44.8257 71.5368 44.5606 72.0006 44.384C72.3982 44.1631 72.8399 44.0968 73.3479 44.0527V42.5287ZM77.8313 47.5864C77.7209 47.5864 77.6105 47.6527 77.4338 47.6968C77.2571 47.7631 77.1025 47.8073 76.9258 47.8073C76.7712 47.8073 76.5945 47.7631 76.4841 47.6527C76.3295 47.5864 76.2632 47.4318 76.2632 47.1447V43.8981H77.6767V42.595H76.2632V40.4527H74.5847V42.595H73.7454V43.8981H74.5847V47.7189C74.5847 48.0502 74.6289 48.2711 74.6951 48.514C74.8055 48.7349 74.916 48.9116 75.0927 49.022C75.2693 49.1324 75.4239 49.2428 75.6448 49.3091C75.8657 49.3754 76.0424 49.4195 76.3295 49.4195C76.6608 49.4195 76.992 49.3754 77.3454 49.2649C77.6767 49.1545 77.9638 49.0441 78.1847 48.9778L77.8313 47.5864ZM84.8988 45.1128C84.8988 44.7815 84.8546 44.4502 84.8546 44.1631C84.7442 43.8318 84.6779 43.5447 84.5233 43.3238C84.4129 43.103 84.192 42.8821 83.9049 42.7054C83.6841 42.595 83.3528 42.4846 82.889 42.4846C82.3368 42.4846 81.8289 42.595 81.3209 42.8159C80.8792 43.103 80.5258 43.4343 80.2607 43.8318V42.595H78.7368V49.287H80.4154V45.3557C80.4816 45.179 80.592 44.9582 80.7025 44.8478C80.8129 44.6932 80.9896 44.5165 81.1442 44.406C81.2988 44.2956 81.4313 44.1852 81.6522 44.1189C81.8289 44.0527 81.9835 44.0085 82.1601 44.0085C82.4914 44.0085 82.7123 44.1189 82.9552 44.3398C83.1098 44.6269 83.2423 45.0024 83.2423 45.5103V49.2649H84.9209V45.1128H84.8988ZM90.8841 45.3336C90.8841 44.8919 90.6632 44.4281 90.3761 44.141C90.0448 43.8539 89.6473 43.6993 89.1393 43.6993C88.9184 43.6993 88.7417 43.7655 88.5209 43.8097C88.3442 43.9201 88.1233 44.0306 88.0129 44.141C87.8583 44.3177 87.7258 44.4723 87.6154 44.649C87.5049 44.8698 87.4387 45.0907 87.4387 45.3116H90.8841V45.3336ZM89.2055 49.3754C88.6534 49.3754 88.1896 49.2649 87.7479 49.0882C87.3062 48.9116 86.9528 48.6465 86.6215 48.3594C86.3344 48.0281 86.1135 47.6968 85.9589 47.233C85.7822 46.8355 85.6718 46.3938 85.6718 45.93C85.6718 45.4882 85.7822 45.0244 85.9589 44.5827C86.1135 44.1852 86.3565 43.7876 86.6215 43.4563C86.9086 43.1692 87.2841 42.9484 87.7479 42.7275C88.1896 42.5508 88.6534 42.4404 89.2055 42.4404C89.7577 42.4404 90.2215 42.5508 90.6632 42.7275C91.0608 42.9484 91.4583 43.1692 91.7233 43.4563C92.0546 43.7876 92.2755 44.1189 92.4522 44.5827C92.5626 44.9803 92.673 45.422 92.673 45.8858C92.673 45.9962 92.673 46.1067 92.673 46.2171C92.6068 46.2613 92.6068 46.3938 92.6068 46.4379H87.4608C87.527 46.7251 87.5712 46.9459 87.6816 47.1668C87.792 47.3214 87.9025 47.4981 88.0792 47.6748C88.2338 47.7852 88.4104 47.8956 88.6313 48.006C88.7859 48.0723 89.0289 48.1165 89.2497 48.1165C89.581 48.1165 89.9123 48.006 90.1994 47.8294C90.4865 47.6527 90.7074 47.4318 90.8178 47.2109L92.2755 47.6085C92.0546 48.1165 91.6571 48.514 91.1049 48.8453C90.5528 49.2208 89.9344 49.3754 89.2055 49.3754ZM97.3994 42.5287C97.3994 42.5287 97.3552 42.5287 97.289 42.4625C97.2448 42.4625 97.1785 42.4625 97.0681 42.4625C96.6706 42.4625 96.273 42.6392 95.9417 42.9042C95.5442 43.1913 95.2792 43.5226 95.0362 44.0306V42.5729H93.4681V49.2649H95.1466V45.2232C95.3233 44.8257 95.5884 44.5606 96.0522 44.384C96.4497 44.1631 96.8914 44.0968 97.3994 44.0527V42.5287ZM101.883 49.2208C102.214 49.1545 102.501 48.9999 102.722 48.8232C103.009 48.6686 103.164 48.4257 103.274 48.1606C103.385 47.8735 103.495 47.6085 103.495 47.2551C103.495 46.968 103.429 46.7471 103.318 46.5263C103.208 46.3496 103.098 46.1729 102.877 46.0183C102.656 45.9079 102.369 45.7312 102.037 45.6208C101.706 45.5103 101.309 45.3999 100.801 45.2895C100.293 45.1349 99.9614 45.0024 99.7847 44.9582C99.5638 44.8478 99.4534 44.6711 99.4534 44.4502C99.4534 44.1631 99.5638 44.0085 99.7847 43.8981C99.9393 43.7876 100.226 43.6772 100.514 43.6772C100.845 43.6772 101.176 43.7214 101.529 43.8318C101.861 43.9422 102.192 44.1189 102.59 44.3398L103.252 43.3238C102.855 43.0367 102.413 42.8159 101.949 42.7054C101.507 42.5508 100.999 42.4846 100.558 42.4846C100.16 42.4846 99.8288 42.5508 99.4976 42.6613C99.1663 42.7054 98.8792 42.8821 98.6583 43.0588C98.3712 43.2797 98.2166 43.5005 98.1062 43.7876C97.9295 44.0747 97.8853 44.3398 97.8853 44.6932C97.8853 44.9803 97.9295 45.1349 97.9957 45.3557C98.1062 45.5103 98.2166 45.687 98.3933 45.8637C98.6141 45.9741 98.835 46.0846 99.1884 46.195C99.4755 46.3054 99.8509 46.4379 100.248 46.5484C100.801 46.703 101.264 46.8355 101.485 46.9459C101.706 47.0563 101.817 47.233 101.817 47.4539C101.817 47.6748 101.706 47.8956 101.529 48.006C101.309 48.1165 101.021 48.1606 100.69 48.1606C99.8951 48.1606 99.0558 47.8735 98.2166 47.3214L97.554 48.4919C97.7086 48.6686 97.9957 48.779 98.2166 48.8895C98.5037 48.9999 98.7246 49.0441 99.0117 49.1766C99.2988 49.2428 99.5638 49.287 99.9172 49.3533C100.204 49.3533 100.469 49.3974 100.756 49.3974C101.154 49.3754 101.552 49.3312 101.883 49.2208ZM110.474 45.1128C110.474 44.7815 110.474 44.4502 110.408 44.1631C110.364 43.8318 110.253 43.5447 110.077 43.3238C109.922 43.0367 109.679 42.8821 109.458 42.7054C109.171 42.595 108.84 42.4846 108.398 42.4846C107.89 42.4846 107.448 42.595 107.007 42.8159C106.609 43.103 106.278 43.368 105.991 43.8318V40.0109H104.312V49.2649H105.991V45.3336C106.101 45.157 106.145 44.9361 106.278 44.8257C106.455 44.6711 106.565 44.4944 106.72 44.384C106.896 44.2735 107.051 44.1631 107.161 44.0968C107.338 44.0306 107.493 43.9864 107.669 43.9864C108.001 43.9864 108.288 44.0968 108.509 44.3177C108.685 44.6048 108.796 44.9803 108.796 45.4882V49.2429H110.474V45.1128ZM111.689 41.6895V40.0109H113.368V41.6895H111.689ZM111.689 49.2649V42.5729H113.368V49.2649H111.689ZM118.028 47.9177C118.248 47.9177 118.469 47.8735 118.69 47.7631C118.911 47.6527 119.088 47.5422 119.242 47.3214C119.397 47.1447 119.529 46.9238 119.574 46.703C119.684 46.4159 119.728 46.195 119.728 45.9079C119.728 45.6208 119.684 45.3557 119.574 45.1128C119.463 44.8919 119.353 44.6711 119.176 44.4944C119.021 44.3398 118.845 44.1631 118.624 44.0968C118.403 43.9864 118.116 43.9201 117.895 43.9201C117.718 43.9201 117.564 43.9201 117.387 43.9864C117.233 44.0306 117.056 44.141 116.945 44.2735C116.791 44.3398 116.658 44.4502 116.548 44.6048C116.437 44.7152 116.327 44.8919 116.261 45.0465V46.6146C116.437 46.9459 116.658 47.2772 116.923 47.5201C117.299 47.8073 117.63 47.9177 118.028 47.9177ZM118.536 49.3754C118.028 49.3754 117.586 49.2649 117.188 49.0441C116.791 48.757 116.526 48.4919 116.283 48.0944V51.9594H114.604V42.5729H116.062V43.7655C116.283 43.368 116.614 43.0367 117.012 42.8159C117.409 42.595 117.851 42.4846 118.359 42.4846C118.801 42.4846 119.198 42.595 119.596 42.7717C119.993 42.9263 120.325 43.2134 120.612 43.5005C120.899 43.8318 121.053 44.1631 121.23 44.5606C121.407 45.0024 121.451 45.4662 121.451 45.9079C121.451 46.4159 121.407 46.8576 121.296 47.2551C121.12 47.6968 120.965 48.0502 120.678 48.3815C120.391 48.7128 120.126 48.9336 119.772 49.1103C119.375 49.2649 118.977 49.3754 118.536 49.3754Z" fill="#0B8090"/>
</svg>
