<svg width="39" height="21" viewBox="0 0 39 21" fill="none" xmlns="http://www.w3.org/2000/svg">
<path d="M10.7733 0C16.7172 0 21.5467 4.7069 21.5467 10.5C21.5467 16.2931 16.7172 21 10.7733 21C4.82942 21 0 16.2931 0 10.5C0 4.7069 4.95326 0 10.7733 0ZM27.9859 0.603448C30.9578 0.603448 33.3106 5.06897 33.3106 10.5C33.3106 15.931 30.9578 20.3966 27.9859 20.3966C25.0139 20.3966 22.6611 15.931 22.6611 10.5C22.6611 5.06897 25.0139 0.603448 27.9859 0.603448ZM36.1588 1.68966C37.1494 1.68966 38.0162 5.67241 38.0162 10.5C38.0162 15.3276 37.1494 19.3103 36.1588 19.3103C35.1681 19.3103 34.3013 15.3276 34.3013 10.5C34.3013 5.67241 35.1681 1.68966 36.1588 1.68966Z" fill="#999"/>
</svg>
