<svg width="267" height="281" viewBox="0 0 267 281" fill="none" xmlns="http://www.w3.org/2000/svg">
<path d="M267 102.5L228.315 140.815L197.238 171.892L267 241.654M267 163.1L258.192 171.907L267 180.715M267 75.8537L184.115 158.754L57.4382 32.0768C56.2383 30.8769 56.2383 28.4922 57.4382 27.2923L82.5306 2.19994C82.5306 1 83.7153 1 84.9153 1C86.1152 1 87.2999 1 88.4999 2.19994L184.1 97.8L267 14.9M215.146 279.416L184.085 248.354L153.023 279.416M267 269.146L215.146 217.292L184.07 186.216H184.1L153.023 217.292L90.8997 279.416M1.28418 279.416L108.823 171.877L13.2228 76.2771C12.0229 73.8924 12.0229 71.5077 13.2228 70.3078L38.3152 45.2154C38.3152 44.0155 39.4999 44.0155 40.6999 44.0155C41.8846 45.2154 43.0845 45.2154 43.0845 45.2154L138.685 140.815L169.761 171.892L62.2303 279.416" stroke="black" stroke-width="2" stroke-miterlimit="10"/>
</svg>
