<svg width="97" height="97" viewBox="0 0 97 97" fill="none" xmlns="http://www.w3.org/2000/svg">
<path d="M52.925 0V9.76333C74.1433 12.3733 89.175 31.6583 86.565 52.8767C84.3417 70.47 70.5183 84.4383 52.925 86.5167V96.1833C79.5083 93.525 98.8417 69.9383 96.1833 43.355C94.0083 20.3967 75.7867 2.27167 52.925 0ZM43.2583 0.145C33.8333 1.06333 24.8433 4.68833 17.4967 10.7783L24.4083 17.9317C29.8217 13.5817 36.3467 10.7783 43.2583 9.81167V0.145ZM10.6817 17.5933C4.64214 24.9295 0.923618 33.8977 0 43.355H9.66667C10.585 36.4917 13.2917 29.9667 17.5933 24.505L10.6817 17.5933ZM65.0083 31.2717L41.4217 54.8583L31.175 44.6117L26.0517 49.735L41.4217 65.105L70.1317 36.395L65.0083 31.2717ZM0.0483333 53.0217C1.015 62.495 4.73667 71.4367 10.73 78.7833L17.5933 71.8717C13.3247 66.4083 10.6036 59.8977 9.715 53.0217H0.0483333ZM24.4083 78.9767L17.4967 85.5983C24.819 91.6999 33.7819 95.5003 43.2583 96.5217V86.855C36.3823 85.9663 29.8717 83.2453 24.4083 78.9767Z" fill="#E9190F"/>
</svg>
